#!OML:ASF G:\JayActor3\Patient Classification 1\Patient 1\Session 2\male.ASF
:FULLY-SPECIFIED
:DEGREES
3462
root -27.094 15.8274 -7.83207 364.784 58.7395 -1805.86
lowerback 17.2935 0.866217 0.722613
upperback 9.68645 1.66802 2.27871
thorax 0.602715 0.964161 1.71761
lowerneck -1.24472 16.4985 9.91701
upperneck -11.3637 21.4747 -16.076
head -0.319902 11.081 -5.78953
rclavicle -4.83047e-014 2.38542e-015
rhumerus -13.8705 15.2704 -70.1587
rradius 94.0447
rwrist 10.5494
rhand -45.4261 24.6125
rfingers 7.12502
rthumb -18.1937 -4.55663
lclavicle -4.83047e-014 2.38542e-015
lhumerus 6.60405 -21.0226 65.4326
lradius 84.8795
lwrist 13.8481
lhand -38.6551 11.7946
lfingers 7.12502
lthumb -11.671 41.4495
rfemur -39.5596 0.145994 19.4424
rtibia 57.2591
rfoot -24.7078 -4.91231
rtoes 15.6769
lfemur -32.2246 10.364 -25.9711
ltibia 52.7812
lfoot -26.517 13.3546
ltoes -1.20197
3463
root -27.0804 15.8269 -7.83205 364.785 59.1126 -1805.9
lowerback 17.2996 0.982604 0.865553
upperback 9.66921 1.84285 2.29971
thorax 0.580044 1.05737 1.62986
lowerneck -1.27897 16.5666 10.0089
upperneck -11.273 21.5684 -16.2147
head -0.249229 11.1277 -5.81922
rclavicle -2.88238e-014 -2.06736e-014
rhumerus -14.6344 14.6143 -69.9594
rradius 94.074
rwrist 10.6312
rhand -45.3892 24.5759
rfingers 7.12502
rthumb -18.1581 -4.59654
lclavicle -2.88238e-014 -2.06736e-014
lhumerus 7.01334 -21.6371 65.2795
lradius 84.9025
lwrist 13.883
lhand -38.6619 11.732
lfingers 7.12502
lthumb -11.6776 41.3866
rfemur -39.5221 0.100093 19.4061
rtibia 57.3117
rfoot -24.8343 -5.22623
rtoes 15.3311
lfemur -32.2243 10.1289 -25.9714
ltibia 52.7711
lfoot -26.4715 13.2381
ltoes -1.19516
3464
root -27.0665 15.8265 -7.83224 364.78 59.4888 -1805.94
lowerback 17.3035 1.096 1.01388
upperback 9.65197 2.01461 2.32278
thorax 0.559502 1.14912 1.5418
lowerneck -1.30546 16.6344 10.094
upperneck -11.1829 21.6618 -16.3612
head -0.179446 11.1749 -5.8507
rclavicle 8.74653e-015 7.55382e-015
rhumerus -15.4182 13.9516 -69.7572
rradius 94.1053
rwrist 10.6161
rhand -45.3406 24.5027
rfingers 7.12502
rthumb -18.1113 -4.67404
lclavicle 8.74653e-015 7.55382e-015
lhumerus 7.38981 -22.2072 65.1401
lradius 84.9554
lwrist 13.949
lhand -38.6877 11.711
lfingers 7.12502
lthumb -11.7025 41.3641
rfemur -39.4862 0.0381138 19.3754
rtibia 57.3646
rfoot -24.9574 -5.53284
rtoes 14.9804
lfemur -32.2237 9.90134 -25.9701
ltibia 52.7575
lfoot -26.4286 13.1222
ltoes -1.19521
3465
root -27.0521 15.8263 -7.83241 364.767 59.8614 -1805.99
lowerback 17.3123 1.20699 1.16329
upperback 9.63334 2.18352 2.34533
thorax 0.53596 1.23942 1.45288
lowerneck -1.3092 16.7032 10.1703
upperneck -11.1008 21.7576 -16.5144
head -0.115061 11.2246 -5.88511
rclavicle 4.69132e-014 -1.47101e-014
rhumerus -16.2265 13.294 -69.5561
rradius 94.1398
rwrist 10.5075
rhand -45.2849 24.4017
rfingers 7.12502
rthumb -18.0578 -4.78002
lclavicle 4.69132e-014 -1.47101e-014
lhumerus 7.71779 -22.7365 65.0214
lradius 85.0369
lwrist 14.0497
lhand -38.7358 11.7189
lfingers 7.12502
lthumb -11.7489 41.3694
rfemur -39.4401 -0.0336844 19.3459
rtibia 57.4157
rfoot -25.0834 -5.82518
rtoes 14.6614
lfemur -32.2075 9.69261 -25.9685
ltibia 52.7349
lfoot -26.3906 12.998
ltoes -1.20221
3466
root -27.0372 15.8262 -7.83241 364.75 60.2307 -1806.03
lowerback 17.3223 1.31257 1.30908
upperback 9.61714 2.34503 2.36754
thorax 0.515248 1.32586 1.36688
lowerneck -1.29807 16.776 10.2297
upperneck -11.0286 21.8591 -16.67
head -0.0565308 11.2785 -5.91943
rclavicle -2.82274e-014 5.56597e-015
rhumerus -17.0441 12.6532 -69.3555
rradius 94.1766
rwrist 10.3278
rhand -45.2299 24.286
rfingers 7.12502
rthumb -18.0048 -4.90059
lclavicle -2.82274e-014 5.56597e-015
lhumerus 8.00938 -23.2187 64.921
lradius 85.1361
lwrist 14.1866
lhand -38.8213 11.7671
lfingers 7.12502
lthumb -11.8314 41.4129
rfemur -39.3854 -0.111451 19.3155
rtibia 57.4663
rfoot -25.2213 -6.08742
rtoes 14.4396
lfemur -32.1778 9.50329 -25.9672
ltibia 52.7037
lfoot -26.3561 12.8603
ltoes -1.21361
3467
root -27.0221 15.8261 -7.83225 364.734 60.5944 -1806.07
lowerback 17.3389 1.41543 1.44696
upperback 9.60449 2.50214 2.38579
thorax 0.495639 1.40994 1.28177
lowerneck -1.30965 16.8525 10.2789
upperneck -10.9336 21.966 -16.8152
head 0.010692 11.3336 -5.9456
rclavicle -1.35174e-014 -2.10712e-014
rhumerus -17.8667 12.0242 -69.1587
rradius 94.2127
rwrist 10.1171
rhand -45.1837 24.1788
rfingers 7.12502
rthumb -17.9604 -5.01191
lclavicle -1.35174e-014 -2.10712e-014
lhumerus 8.27656 -23.662 64.8335
lradius 85.247
lwrist 14.3535
lhand -38.9325 11.843
lfingers 7.12502
lthumb -11.9385 41.4826
rfemur -39.3218 -0.194783 19.2809
rtibia 57.5169
rfoot -25.3724 -6.32977
rtoes 14.2944
lfemur -32.1326 9.33143 -25.9703
ltibia 52.6639
lfoot -26.3246 12.708
ltoes -1.22795
3468
root -27.0067 15.8257 -7.832 364.737 60.9511 -1806.08
lowerback 17.3505 1.51562 1.57433
upperback 9.59054 2.65384 2.39715
thorax 0.477921 1.49094 1.19635
lowerneck -1.32696 16.9281 10.3251
upperneck -10.8209 22.0729 -16.953
head 0.0828949 11.3875 -5.96765
rclavicle -2.38542e-015 -3.57812e-015
rhumerus -18.6981 11.4141 -68.9648
rradius 94.2485
rwrist 9.91657
rhand -45.1578 24.094
rfingers 7.12502
rthumb -17.9355 -5.09903
lclavicle -2.38542e-015 -3.57812e-015
lhumerus 8.51635 -24.0716 64.7596
lradius 85.3671
lwrist 14.5394
lhand -39.054 11.9367
lfingers 7.12502
lthumb -12.0557 41.5695
rfemur -39.2622 -0.284775 19.2375
rtibia 57.5696
rfoot -25.5249 -6.55964
rtoes 14.1637
lfemur -32.0861 9.17897 -25.9851
ltibia 52.6184
lfoot -26.2967 12.5367
ltoes -1.23771
3469
root -26.991 15.8253 -7.83175 364.759 61.2993 -1806.08
lowerback 17.3615 1.61098 1.69056
upperback 9.57289 2.79725 2.40007
thorax 0.457154 1.56738 1.10958
lowerneck -1.34655 17.0014 10.3759
upperneck -10.6874 22.1781 -17.0857
head 0.161383 11.4393 -5.98734
rclavicle -3.37934e-014 3.33958e-014
rhumerus -19.5285 10.833 -68.7792
rradius 94.2754
rwrist 9.76412
rhand -45.1548 24.0426
rfingers 7.12502
rthumb -17.9326 -5.15068
lclavicle -3.37934e-014 3.33958e-014
lhumerus 8.72904 -24.4446 64.6936
lradius 85.493
lwrist 14.7311
lhand -39.1765 12.0178
lfingers 7.12502
lthumb -12.1739 41.6436
rfemur -39.2049 -0.378533 19.1857
rtibia 57.6237
rfoot -25.6776 -6.78899
rtoes 13.9898
lfemur -32.0383 9.04718 -26.0115
ltibia 52.5668
lfoot -26.2686 12.351
ltoes -1.25938
3470
root -26.975 15.8249 -7.83163 364.803 61.6369 -1806.06
lowerback 17.3666 1.70134 1.79981
upperback 9.54925 2.93237 2.39278
thorax 0.433921 1.63936 1.01741
lowerneck -1.36839 17.0714 10.4304
upperneck -10.5319 22.2802 -17.2083
head 0.245573 11.4879 -6.00339
rclavicle 1.43125e-014 -7.55382e-015
rhumerus -20.3506 10.2827 -68.6028
rradius 94.2866
rwrist 9.67882
rhand -45.1656 24.021
rfingers 7.12502
rthumb -17.943 -5.17126
lclavicle 1.43125e-014 -7.55382e-015
lhumerus 8.91753 -24.7867 64.6333
lradius 85.619
lwrist 14.9103
lhand -39.2774 12.0834
lfingers 7.12502
lthumb -12.2711 41.7034
rfemur -39.1534 -0.473526 19.1236
rtibia 57.6807
rfoot -25.8359 -6.99348
rtoes 13.8669
lfemur -31.9937 8.93409 -26.0508
ltibia 52.5107
lfoot -26.2404 12.1569
ltoes -1.2856
3471
root -26.9585 15.8248 -7.83156 364.858 61.9584 -1806.02
lowerback 17.3733 1.78814 1.89931
upperback 9.52418 3.06111 2.37583
thorax 0.408964 1.70785 0.921516
lowerneck -1.37341 17.1388 10.4841
upperneck -10.3819 22.38 -17.3274
head 0.324852 11.5356 -6.02041
rclavicle -1.07344e-014 -2.14687e-014
rhumerus -21.1458 9.76643 -68.4364
rradius 94.2748
rwrist 9.65954
rhand -45.1839 24.0227
rfingers 7.12502
rthumb -17.9606 -5.16794
lclavicle -1.07344e-014 -2.14687e-014
lhumerus 9.08768 -25.0964 64.5768
lradius 85.7422
lwrist 15.0637
lhand -39.354 12.1126
lfingers 7.12502
lthumb -12.345 41.7282
rfemur -39.0952 -0.561544 19.0515
rtibia 57.7393
rfoot -26.0016 -7.17566
rtoes 13.7671
lfemur -31.9389 8.84724 -26.1002
ltibia 52.4484
lfoot -26.2133 11.9579
ltoes -1.31928
3472
root -26.9417 15.825 -7.83153 364.922 62.2724 -1805.97
lowerback 17.3732 1.86703 1.99334
upperback 9.50145 3.17825 2.34944
thorax 0.390842 1.77055 0.821058
lowerneck -1.3797 17.2051 10.5333
upperneck -10.2355 22.4783 -17.4368
head 0.40145 11.5824 -6.03452
rclavicle 5.96354e-015 -3.33958e-014
rhumerus -21.8931 9.28545 -68.2842
rradius 94.2364
rwrist 9.6893
rhand -45.1926 24.0307
rfingers 7.12502
rthumb -17.969 -5.15925
lclavicle 5.96354e-015 -3.33958e-014
lhumerus 9.25566 -25.374 64.5138
lradius 85.8557
lwrist 15.1832
lhand -39.4014 12.1046
lfingers 7.12502
lthumb -12.3907 41.7174
rfemur -39.0346 -0.644137 18.9731
rtibia 57.7992
rfoot -26.1766 -7.34585
rtoes 13.6834
lfemur -31.8823 8.77329 -26.155
ltibia 52.3826
lfoot -26.1844 11.7529
ltoes -1.34265
3473
root -26.9249 15.8254 -7.83145 364.988 62.581 -1805.92
lowerback 17.369 1.93668 2.07961
upperback 9.4831 3.28207 2.31914
thorax 0.379911 1.82649 0.723443
lowerneck -1.39103 17.2731 10.5643
upperneck -10.0968 22.5786 -17.5299
head 0.472708 11.6301 -6.04196
rclavicle 2.14687e-014 -7.15625e-015
rhumerus -22.5819 8.84848 -68.1427
rradius 94.1745
rwrist 9.73628
rhand -45.1863 24.033
rfingers 7.12502
rthumb -17.9629 -5.1575
lclavicle 2.14687e-014 -7.15625e-015
lhumerus 9.41772 -25.6142 64.4553
lradius 85.9611
lwrist 15.2654
lhand -39.4061 12.0591
lfingers 7.12502
lthumb -12.3952 41.6716
rfemur -38.97 -0.720213 18.8936
rtibia 57.8599
rfoot -26.3584 -7.50691
rtoes 13.6326
lfemur -31.8213 8.70198 -26.2093
ltibia 52.315
lfoot -26.1547 11.5491
ltoes -1.35259
3474
root -26.9081 15.8258 -7.83127 365.045 62.8886 -1805.88
lowerback 17.359 1.99644 2.16398
upperback 9.47034 3.3726 2.28681
thorax 0.378447 1.87596 0.627455
lowerneck -1.39433 17.3382 10.5882
upperneck -9.97853 22.6745 -17.6137
head 0.53421 11.6765 -6.04852
rclavicle 1.98785e-014 0
rhumerus -23.2119 8.45543 -68.014
rradius 94.0976
rwrist 9.7667
rhand -45.1588 24.0145
rfingers 7.12502
rthumb -17.9364 -5.17844
lclavicle 1.98785e-014 0
lhumerus 9.5808 -25.8243 64.4001
lradius 86.0546
lwrist 15.3216
lhand -39.3633 12.0034
lfingers 7.12502
lthumb -12.3539 41.6184
rfemur -38.8986 -0.78921 18.8192
rtibia 57.9185
rfoot -26.5507 -7.6558
rtoes 13.6353
lfemur -31.757 8.62636 -26.2561
ltibia 52.249
lfoot -26.1261 11.3459
ltoes -1.34407
3475
root -26.8915 15.8262 -7.83101 365.092 63.2004 -1805.84
lowerback 17.3422 2.04506 2.24423
upperback 9.46133 3.44795 2.2562
thorax 0.384436 1.91782 0.538592
lowerneck -1.40309 17.3999 10.604
upperneck -9.86506 22.7653 -17.6816
head 0.591508 11.7199 -6.05024
rclavicle 3.33958e-014 3.57812e-014
rhumerus -23.7861 8.11248 -67.8963
rradius 94.0165
rwrist 9.75536
rhand -45.1106 23.9771
rfingers 7.12502
rthumb -17.8901 -5.22008
lclavicle 3.33958e-014 3.57812e-014
lhumerus 9.73838 -26.0048 64.3576
lradius 86.1407
lwrist 15.3636
lhand -39.2849 11.9598
lfingers 7.12502
lthumb -12.2783 41.5794
rfemur -38.8239 -0.855957 18.7531
rtibia 57.9732
rfoot -26.7431 -7.81591
rtoes 13.6304
lfemur -31.6928 8.53937 -26.2949
ltibia 52.1847
lfoot -26.0978 11.1481
ltoes -1.3367
3476
root -26.8749 15.8264 -7.83079 365.13 63.5148 -1805.82
lowerback 17.3204 2.08525 2.32435
upperback 9.45265 3.51211 2.22656
thorax 0.39359 1.95409 0.45299
lowerneck -1.40094 17.4521 10.6213
upperneck -9.7663 22.8433 -17.7401
head 0.640096 11.7573 -6.05296
rclavicle -2.50469e-014 -3.18055e-015
rhumerus -24.3236 7.813 -67.7887
rradius 93.9455
rwrist 9.69491
rhand -45.0413 23.9217
rfingers 7.12502
rthumb -17.8234 -5.28154
lclavicle -2.50469e-014 -3.18055e-015
lhumerus 9.88814 -26.1691 64.3326
lradius 86.2182
lwrist 15.4015
lhand -39.1751 11.9366
lfingers 7.12502
lthumb -12.1725 41.5624
rfemur -38.7461 -0.921174 18.6943
rtibia 58.0214
rfoot -26.9349 -7.97754
rtoes 13.6512
lfemur -31.6284 8.43467 -26.3268
ltibia 52.1224
lfoot -26.0736 10.964
ltoes -1.32287
